<svg width="152" height="37" viewBox="0 0 152 37" fill="none" xmlns="http://www.w3.org/2000/svg">
<g clip-path="url(#clip0)">
<path fill-rule="evenodd" clip-rule="evenodd" d="M38.2595 3.06239C37.3194 2.59024 36.1561 2.45109 34.8561 2.68757C34.0546 2.83396 33.2 3.12352 32.3138 3.56511C31.463 3.99061 30.6484 4.52389 29.8766 5.14244L33.0075 6.71574C33.7793 6.0972 34.5939 5.56391 35.4438 5.13922C36.33 4.69683 37.1836 4.40726 37.9861 4.26087C39.2861 4.02439 40.4494 4.16354 41.3895 4.6357L38.2595 3.06239Z" fill="#F0A72E"/>
<mask id="mask0" mask-type="alpha" maskUnits="userSpaceOnUse" x="0" y="0" width="31" height="35">
<path fill-rule="evenodd" clip-rule="evenodd" d="M0 0.609169H30.3026V34.2347H0V0.609169Z" fill="white"/>
</mask>
<g mask="url(#mask0)">
<path fill-rule="evenodd" clip-rule="evenodd" d="M27.1726 1.17282C26.0865 0.626667 24.7409 0.466602 23.2382 0.74008C22.3102 0.908993 21.3217 1.2436 20.2961 1.75597C18.5898 2.60858 16.9876 3.84728 15.5983 5.31199C13.0421 8.00736 11.2065 11.4677 10.762 14.6891C9.99487 14.8387 9.17285 15.1226 8.32945 15.5441C6.85838 16.2785 5.47751 17.345 4.28075 18.6063C1.71614 21.3064 -0.00971918 24.8971 -0.000420372 28.0228C0.00794856 30.3023 0.9369 31.9069 2.4368 32.6606L5.56678 34.2347C4.06595 33.4803 3.137 31.8756 3.12956 29.5961C3.11933 26.4704 4.84612 22.8798 7.4098 20.1796C8.60749 18.9183 9.98743 17.8518 11.4594 17.1174C12.3019 16.6959 13.1248 16.412 13.8911 16.2624C14.3356 13.041 16.1721 9.58067 18.7283 6.8853C20.1176 5.42058 21.7188 4.18188 23.4261 3.32928C24.4508 2.81691 25.4393 2.4823 26.3673 2.31338C27.8709 2.0391 29.2155 2.19997 30.3025 2.74612L27.1726 1.17282Z" fill="#F0A72E"/>
</g>
<path fill-rule="evenodd" clip-rule="evenodd" d="M23.4258 3.32944C28.2668 0.911568 32.2895 2.44465 33.0073 6.71574C33.7791 6.0972 34.5937 5.56392 35.4436 5.13922C40.0577 2.83476 43.8125 4.68557 43.8274 9.27115C43.8423 13.8575 40.1116 19.4462 35.4975 21.7506L11.5131 33.729C6.89254 36.0366 3.14419 34.1826 3.12932 29.5962C3.11444 25.0098 6.83768 19.4252 11.4583 17.1176C12.3026 16.6961 13.1246 16.4122 13.8908 16.2625C14.5771 11.2901 18.5774 5.75052 23.4258 3.32944Z" fill="#FFCA00"/>
<path fill-rule="evenodd" clip-rule="evenodd" d="M62.7052 5.31441C61.7651 4.84225 60.6018 4.7031 59.3019 4.93958C58.4994 5.08597 57.6457 5.37554 56.7586 5.81712C55.9087 6.24182 55.0942 6.77591 54.3224 7.39445L57.4523 8.96775C58.2241 8.34921 59.0387 7.81512 59.8896 7.39123C60.7748 6.94804 61.6294 6.65928 62.4309 6.51288C63.7318 6.27641 64.8942 6.41556 65.8343 6.88771L62.7052 5.31441Z" fill="#D43E3E"/>
<path fill-rule="evenodd" clip-rule="evenodd" d="M51.6138 3.41977C50.5277 2.87361 49.1821 2.71274 47.6795 2.98622C46.7514 3.15514 45.7648 3.48974 44.741 4.00131C43.0403 4.8507 41.4427 6.08618 40.0563 7.54848C37.4982 10.2463 35.6589 13.713 35.2135 16.9376C34.4398 17.0905 33.6243 17.3712 32.7744 17.7959C31.3052 18.5294 29.9262 19.596 28.7294 20.8564C26.1648 23.5566 24.4352 27.1488 24.4454 30.2745C24.4529 32.5532 25.3837 34.1563 26.8827 34.9108L30.0126 36.4833C28.5127 35.7296 27.5819 34.1265 27.5745 31.8478C27.5643 28.7221 29.2948 25.1299 31.8585 22.4297C33.0561 21.1685 34.4352 20.1027 35.9034 19.3692C36.7552 18.9445 37.5698 18.6638 38.3434 18.5109C38.7889 15.2855 40.6282 11.8196 43.1863 9.12179C44.5727 7.65948 46.1703 6.42401 47.871 5.57381C48.8939 5.06305 49.8814 4.72844 50.8085 4.55953C52.3121 4.28605 53.6567 4.44692 54.7438 4.99307L51.6138 3.41977Z" fill="#D43E3E"/>
<path fill-rule="evenodd" clip-rule="evenodd" d="M47.8706 5.57397C52.7116 3.1569 56.7352 4.69643 57.4521 8.96751C58.2239 8.34897 59.0385 7.81569 59.8893 7.39099C64.5034 5.08653 68.2573 6.93734 68.2722 11.5229C68.2871 16.1093 64.5573 21.6979 59.9433 24.0024L35.9579 35.9807C31.3448 38.2852 27.5899 36.4344 27.5751 31.848C27.5602 27.2616 31.2899 21.673 35.904 19.3685C36.7548 18.9446 37.5703 18.6639 38.3431 18.5103C39.0293 13.5386 43.0297 7.99184 47.8706 5.57397" fill="#FA7564"/>
<path d="M81.66 26V12.92H84.28L86.6 19.32C86.7467 19.7333 86.8867 20.16 87.02 20.6C87.1533 21.0267 87.2933 21.4533 87.44 21.88H87.52C87.6667 21.4533 87.8 21.0267 87.92 20.6C88.0533 20.16 88.1933 19.7333 88.34 19.32L90.6 12.92H93.24V26H91.1V20.02C91.1 19.7133 91.1067 19.38 91.12 19.02C91.1467 18.66 91.1733 18.3 91.2 17.94C91.2267 17.5667 91.26 17.2067 91.3 16.86C91.34 16.5 91.3733 16.1667 91.4 15.86H91.32L90.26 18.9L88.12 24.78H86.74L84.58 18.9L83.54 15.86H83.46C83.4867 16.1667 83.5133 16.5 83.54 16.86C83.58 17.2067 83.6133 17.5667 83.64 17.94C83.68 18.3 83.7067 18.66 83.72 19.02C83.7467 19.38 83.76 19.7133 83.76 20.02V26H81.66ZM98.3925 26.24C97.5259 26.24 96.8259 25.98 96.2925 25.46C95.7592 24.9267 95.4925 24.2267 95.4925 23.36C95.4925 22.84 95.5992 22.38 95.8125 21.98C96.0392 21.5667 96.3859 21.2133 96.8525 20.92C97.3325 20.6267 97.9325 20.38 98.6525 20.18C99.3859 19.98 100.259 19.8267 101.273 19.72C101.259 19.4667 101.219 19.2267 101.153 19C101.099 18.76 100.999 18.5533 100.853 18.38C100.719 18.1933 100.539 18.0533 100.313 17.96C100.086 17.8533 99.8059 17.8 99.4725 17.8C98.9925 17.8 98.5192 17.8933 98.0525 18.08C97.5992 18.2667 97.1525 18.4933 96.7125 18.76L95.8725 17.22C96.4192 16.8733 97.0325 16.5733 97.7125 16.32C98.3925 16.0667 99.1259 15.94 99.9125 15.94C101.139 15.94 102.053 16.3067 102.653 17.04C103.266 17.76 103.573 18.8067 103.573 20.18V26H101.673L101.513 24.92H101.433C100.993 25.2933 100.519 25.6067 100.013 25.86C99.5192 26.1133 98.9792 26.24 98.3925 26.24ZM99.1325 24.44C99.5325 24.44 99.8925 24.3467 100.213 24.16C100.546 23.9733 100.899 23.7067 101.273 23.36V21.16C100.606 21.24 100.046 21.3467 99.5925 21.48C99.1392 21.6133 98.7725 21.7667 98.4925 21.94C98.2125 22.1 98.0125 22.2867 97.8925 22.5C97.7725 22.7133 97.7125 22.94 97.7125 23.18C97.7125 23.62 97.8459 23.94 98.1125 24.14C98.3792 24.34 98.7192 24.44 99.1325 24.44ZM105.975 26V16.18H107.875L108.035 17.92H108.115C108.462 17.28 108.882 16.7933 109.375 16.46C109.869 16.1133 110.375 15.94 110.895 15.94C111.362 15.94 111.735 16.0067 112.015 16.14L111.615 18.14C111.442 18.0867 111.282 18.0467 111.135 18.02C110.989 17.9933 110.809 17.98 110.595 17.98C110.209 17.98 109.802 18.1333 109.375 18.44C108.949 18.7333 108.582 19.2533 108.275 20V26H105.975ZM116.546 26.24C115.973 26.24 115.486 26.1533 115.086 25.98C114.7 25.8067 114.38 25.5667 114.126 25.26C113.886 24.94 113.706 24.5667 113.586 24.14C113.48 23.7 113.426 23.2133 113.426 22.68V18H112.026V16.28L113.546 16.18L113.826 13.5H115.746V16.18H118.246V18H115.746V22.68C115.746 23.8267 116.206 24.4 117.126 24.4C117.3 24.4 117.473 24.38 117.646 24.34C117.833 24.3 118 24.2467 118.146 24.18L118.546 25.88C118.28 25.9733 117.973 26.0533 117.626 26.12C117.293 26.2 116.933 26.24 116.546 26.24ZM121.913 26.24C121.047 26.24 120.347 25.98 119.813 25.46C119.28 24.9267 119.013 24.2267 119.013 23.36C119.013 22.84 119.12 22.38 119.333 21.98C119.56 21.5667 119.907 21.2133 120.373 20.92C120.853 20.6267 121.453 20.38 122.173 20.18C122.907 19.98 123.78 19.8267 124.793 19.72C124.78 19.4667 124.74 19.2267 124.673 19C124.62 18.76 124.52 18.5533 124.373 18.38C124.24 18.1933 124.06 18.0533 123.833 17.96C123.607 17.8533 123.327 17.8 122.993 17.8C122.513 17.8 122.04 17.8933 121.573 18.08C121.12 18.2667 120.673 18.4933 120.233 18.76L119.393 17.22C119.94 16.8733 120.553 16.5733 121.233 16.32C121.913 16.0667 122.647 15.94 123.433 15.94C124.66 15.94 125.573 16.3067 126.173 17.04C126.787 17.76 127.093 18.8067 127.093 20.18V26H125.193L125.033 24.92H124.953C124.513 25.2933 124.04 25.6067 123.533 25.86C123.04 26.1133 122.5 26.24 121.913 26.24ZM122.653 24.44C123.053 24.44 123.413 24.3467 123.733 24.16C124.067 23.9733 124.42 23.7067 124.793 23.36V21.16C124.127 21.24 123.567 21.3467 123.113 21.48C122.66 21.6133 122.293 21.7667 122.013 21.94C121.733 22.1 121.533 22.2867 121.413 22.5C121.293 22.7133 121.233 22.94 121.233 23.18C121.233 23.62 121.367 23.94 121.633 24.14C121.9 24.34 122.24 24.44 122.653 24.44ZM134.596 26.24C133.836 26.24 133.15 26.1333 132.536 25.92C131.936 25.6933 131.416 25.34 130.976 24.86C130.55 24.38 130.216 23.7667 129.976 23.02C129.75 22.26 129.636 21.34 129.636 20.26V12.92H131.956V20.44C131.956 21.1467 132.016 21.7467 132.136 22.24C132.27 22.72 132.45 23.1067 132.676 23.4C132.916 23.6933 133.196 23.9067 133.516 24.04C133.836 24.16 134.196 24.22 134.596 24.22C134.996 24.22 135.363 24.16 135.696 24.04C136.03 23.9067 136.316 23.6933 136.556 23.4C136.796 23.1067 136.983 22.72 137.116 22.24C137.25 21.7467 137.316 21.1467 137.316 20.44V12.92H139.536V20.26C139.536 21.34 139.423 22.26 139.196 23.02C138.97 23.7667 138.636 24.38 138.196 24.86C137.77 25.34 137.25 25.6933 136.636 25.92C136.036 26.1333 135.356 26.24 134.596 26.24ZM142.452 26V12.92H146.572C147.292 12.92 147.959 12.9867 148.572 13.12C149.199 13.2533 149.739 13.48 150.192 13.8C150.645 14.12 150.999 14.54 151.252 15.06C151.505 15.5667 151.632 16.2 151.632 16.96C151.632 17.68 151.505 18.3067 151.252 18.84C150.999 19.3733 150.645 19.82 150.192 20.18C149.752 20.5267 149.225 20.7867 148.612 20.96C148.012 21.12 147.359 21.2 146.652 21.2H144.772V26H142.452ZM144.772 19.34H146.472C148.392 19.34 149.352 18.5467 149.352 16.96C149.352 16.1333 149.099 15.5667 148.592 15.26C148.099 14.94 147.365 14.78 146.392 14.78H144.772V19.34Z" fill="white"/>
</g>
<defs>
<clipPath id="clip0">
<rect width="152" height="37" fill="white"/>
</clipPath>
</defs>
</svg>
